
          888    d8P         d8888 8888888b.  d8b 888b    888        d8888 
          888   d8P         d88888 888   Y88b Y8P 8888b   888       d88888 
          888  d8P         d88P888 888    888     88888b  888      d88P888 
          888d88K         d88P 888 888   d88P 888 888Y88b 888     d88P 888 
          8888888b       d88P  888 8888888P"  888 888 Y88b888    d88P  888 
          888  Y88b     d88P   888 888 T88b   888 888  Y88888   d88P   888 
          888   Y88b   d8888888888 888  T88b  888 888   Y8888  d8888888888 
          888    Y88b d88P     888 888   T88b 888 888    Y888 d88P     888 

                  Homicide.1991.CRITERION.DVDRip.XviD-KARiNA.avi 
                                                             
Synopsis.

Homicide | USA | 1991 | Directed by David Mamet
                                  
In David Mamet’s cinema, nothing is as it seems—so you better know what you’re looking for. Unfortunately, the protagonist of Mamet’s nightmarish urban odyssey Homicide, inner-city police detective Bobby Gold (Joe Mantegna), is as bewildered about who he is as who (or what) he’s after. Gold’s investigation, following the murder of an elderly Jewish candy-shop owner, leads him down a path of obscure encounters and clues, to a profound reckoning with his own identity. Filled with Mamet’s trademark verbal play and featuring standout supporting performances from William H. Macy, Ving Rhames, and Rebecca Pidgeon, Homicide is a taut, rich work from a true American original. Audio commentary featuring writer-director David Mamet and actor William H. Macy.

IMdB: http://www.imdb.com/title/tt0102048/ | Rating: 6.9 / 10 (1,801 votes)
                                     
General.
                                                                  
Complete name                    : Homicide.1991.CRITERION.DVDRip.XviD-KARiNA.avi
Format                           : AVI
File size                        : 1.37 GiB
Duration                         : 1h 41mn
Overall bit rate                 : 1 931 Kbps
Source                           : Criterion NTSC DVD9
                                       
Video.                       

Format                           : MPEG-4 Visual
Codec ID                         : XVID
Bit rate                         : 1 780 Kbps
Width                            : 720 pixels
Height                           : 400 pixels
Display aspect ratio             : 16/9
Frame rate                       : 23.976 fps
Resolution                       : 24 bits
Colorimetry                      : 4:2:0
Scan type                        : Progressive
Bits/(Pixel*Frame)               : 0.258
Stream size                      : 1.26 GiB (92%)
Writing library                  : XviD 1.2.1 (UTC 2008-12-04)

Audio.                          

Format                           : MPEG Audio
Format version                   : Version 1
Format profile                   : Layer 3
Bit rate mode                    : Variable
Bit rate                         : 138 Kbps
Nominal bit rate                 : 160 Kbps
Channel(s)                       : 2 channels
Sampling rate                    : 48.0 KHz
Resolution                       : 16 bits
Stream size                      : 100 MiB (7%)
Alignment                        : Aligned on interleaves
Writing library                  : LAME3.98r
Language                         : English

KARiNA.